# xmcd
#
# Track frame offsets:
#	150
#	23770
#	40600
#	70920
#	100382
#	118952
#	141162
#	158760
#	183782
#	200815
#	221752
#	241155
#	259285
#	284112
#
# Disc length: 3976 seconds
#
# Revision: 0
# Processed by: cddbd v1.4b42PL0 Copyright (c) Steve Scherf et al.
# Submitted via: EZCDDA 4.3.3.2
#
DISCID=d70f860e
DTITLE=Mojo Buford - State of the Blues Harp
DYEAR=1900
DGENRE=
TTITLE0=Picking Rags
TTITLE1=Groundhog Blues
TTITLE2=Mo's Stroll
TTITLE3=Jealous of My Baby
TTITLE4=I'm a Bluesman
TTITLE5=I Wanna Know
TTITLE6=Jack Potato Boogie
TTITLE7=Come Home Baby
TTITLE8=Big Leg Woman
TTITLE9=Watch Dog
TTITLE10=Jealous of My Baby
TTITLE11=Mo's Stroll
TTITLE12=Deep Sea Diver
TTITLE13=Picking Rags
EXTD=
EXTT0=
EXTT1=
EXTT2=
EXTT3=
EXTT4=
EXTT5=
EXTT6=
EXTT7=
EXTT8=
EXTT9=
EXTT10=
EXTT11=
EXTT12=
EXTT13=
PLAYORDER=
